# xmcd
#
# Track frame offsets: 
#        150
#        14084
#        32504
#        46845
#        66737
#        84245
#        93620
#        107874
#        117573
#        136429
#        153966
#        179509
#        191619
#        201303
#
# Disc length: 2981 seconds
#
# Revision: 4
# Processed by: cddbd v1.5.2PL0 Copyright (c) Steve Scherf et al.
# Submitted via: ExactAudioCopy v0.90b4
#
DISCID=cb0ba30e
DTITLE=Frank Black - Honeycomb
DYEAR=2005
DGENRE=Alt. Rock
TTITLE0=Selkie Bride
TTITLE1=I Burn Today
TTITLE2=Lone Child
TTITLE3=Another Velvet Nightmare
TTITLE4=Dark End Of The Street
TTITLE5=Go Find Your Saint
TTITLE6=Song Of The Shrimp
TTITLE7=Strange Goodbye
TTITLE8=Sunday Sunny Mill Valley Groove Day
TTITLE9=Honeycomb
TTITLE10=My Life Is In Storage
TTITLE11=Atom In My Heart
TTITLE12=Violet
TTITLE13=Sing For Joy
EXTD=
EXTT0=
EXTT1=
EXTT2=
EXTT3=
EXTT4=
EXTT5=
EXTT6=
EXTT7=
EXTT8=
EXTT9=
EXTT10=
EXTT11=
EXTT12=
EXTT13=
PLAYORDER=
